<svg width="20" height="20" viewBox="0 0 20 20" fill="none" xmlns="http://www.w3.org/2000/svg">
<g clip-path="url(#clip0_26_4005)">
<path d="M16.6668 18.3333C17.1271 18.3333 17.5002 17.9602 17.5002 17.5C17.5002 17.0398 17.1271 16.6667 16.6668 16.6667C16.2066 16.6667 15.8335 17.0398 15.8335 17.5C15.8335 17.9602 16.2066 18.3333 16.6668 18.3333Z" stroke="#7B88A8" stroke-width="2" stroke-linecap="round" stroke-linejoin="round"></path>
<path d="M7.49984 18.3333C7.96007 18.3333 8.33317 17.9602 8.33317 17.5C8.33317 17.0398 7.96007 16.6667 7.49984 16.6667C7.0396 16.6667 6.6665 17.0398 6.6665 17.5C6.6665 17.9602 7.0396 18.3333 7.49984 18.3333Z" stroke="#7B88A8" stroke-width="2" stroke-linecap="round" stroke-linejoin="round"></path>
<path d="M0.833496 0.833344H4.16683L6.40016 11.9917C6.47637 12.3753 6.68509 12.72 6.98978 12.9653C7.29448 13.2105 7.67574 13.3408 8.06683 13.3333H16.1668C16.5579 13.3408 16.9392 13.2105 17.2439 12.9653C17.5486 12.72 17.7573 12.3753 17.8335 11.9917L19.1668 5.00001H5.00016" stroke="#7B88A8" stroke-width="2" stroke-linecap="round" stroke-linejoin="round"></path>
</g>
<defs>
<clipPath id="clip0_26_4005">
<rect width="20" height="20" fill="white"></rect>
</clipPath>
</defs>
</svg>