<svg xmlns="http://www.w3.org/2000/svg" width="24" height="24" viewBox="0 0 24 24" fill="none"><g clip-path="url(#clip0_23_820)"><path d="M18 8.00012H19C20.0609 8.00012 21.0783 8.42155 21.8284 9.17169C22.5786 9.92184 23 10.9393 23 12.0001C23 13.061 22.5786 14.0784 21.8284 14.8285C21.0783 15.5787 20.0609 16.0001 19 16.0001H18" stroke="#7B88A8" stroke-width="2" stroke-linecap="round" stroke-linejoin="round"></path><path d="M2 8.00012H18V17.0001C18 18.061 17.5786 19.0784 16.8284 19.8285C16.0783 20.5787 15.0609 21.0001 14 21.0001H6C4.93913 21.0001 3.92172 20.5787 3.17157 19.8285C2.42143 19.0784 2 18.061 2 17.0001V8.00012Z" stroke="#7B88A8" stroke-width="2" stroke-linecap="round" stroke-linejoin="round"></path><path d="M14 1.00012V4.00012" stroke="#7B88A8" stroke-width="2" stroke-linecap="round" stroke-linejoin="round"></path><path d="M10 1.00012V4.00012" stroke="#7B88A8" stroke-width="2" stroke-linecap="round" stroke-linejoin="round"></path><path d="M6 1.00012V4.00012" stroke="#7B88A8" stroke-width="2" stroke-linecap="round" stroke-linejoin="round"></path></g><defs><clipPath id="clip0_23_820"><rect width="24" height="24" fill="white"></rect></clipPath></defs></svg>