<?xml version="1.0" encoding="UTF-8" standalone="no"?> <svg width="52" height="52" viewBox="0 0 52 52" fill="none" xmlns="http://www.w3.org/2000/svg">
<path fill-rule="evenodd" clip-rule="evenodd" d="M26.1922 17.0412C29.1512 12.9616 32.4203 9.75 36.6021 9.75C44.4987 9.75 51 19.9974 51.0031 32.1993C51.0031 39.6432 47.8607 44.3054 42.2148 44.3054C37.2952 44.3054 34.5809 41.4884 29.7091 33.1761L27.5821 29.5276L27.5811 29.5292L27.2062 28.8864C26.6121 27.8663 26.049 26.9174 25.5132 26.0355C23.9841 28.793 21.7613 32.795 21.7613 32.795C16.4269 42.3012 13.4269 44.3054 9.2556 44.3054C3.46026 44.3054 0 39.7061 0 32.4135C0 20.76 6.35759 9.75 14.6548 9.75C15.6722 9.75 16.6479 9.87574 17.6026 10.1468C18.6749 10.4513 19.7207 10.9391 20.7697 11.6381C22.5225 12.8062 24.2841 14.564 26.1922 17.0412ZM31.0227 24.2664C30.2199 22.9352 29.4503 21.7111 28.7075 20.588C28.7015 20.579 28.6956 20.57 28.6896 20.561C31.3846 16.3197 33.6075 14.2076 36.2517 14.2076C41.7441 14.2076 46.1384 22.4533 46.1384 32.5814C46.1384 36.442 44.8983 38.6822 42.3287 38.6822C39.8655 38.6812 38.6891 37.0228 34.0129 29.3512L31.0227 24.2664ZM15.3256 15.4411C17.6842 15.723 19.8071 17.4386 22.9055 21.961C19.6596 27.0372 17.6934 30.221 17.6934 30.221C13.3693 37.132 11.8733 38.6812 9.46606 38.6812C6.98864 38.6812 5.51608 36.4634 5.51608 32.5089C5.51608 24.0487 9.65314 15.3981 14.5846 15.3981C14.835 15.3981 15.0815 15.4119 15.3256 15.4411Z" fill="url(#paint0_linear_801_1234)"/>
<defs>
<linearGradient id="paint0_linear_801_1234" x1="25.5015" y1="9.75" x2="25.5015" y2="44.3054" gradientUnits="userSpaceOnUse">
<stop stop-color="#88C6FF"/>
<stop offset="1" stop-color="#0085FF"/>
</linearGradient>
</defs>
</svg>
